<svg width="27" height="26" viewBox="0 0 27 26" fill="none" xmlns="http://www.w3.org/2000/svg">
<path d="M12.5428 0.680706C12.8583 -0.226817 14.1417 -0.226817 14.4572 0.680707L17.0806 8.22782C17.2197 8.62816 17.5933 8.89961 18.0171 8.90825L26.0055 9.07104C26.9661 9.09061 27.3627 10.3112 26.5971 10.8917L20.23 15.7189C19.8922 15.9749 19.7495 16.4141 19.8723 16.8198L22.186 24.4675C22.4642 25.3872 21.4259 26.1416 20.6372 25.5928L14.0788 21.029C13.7309 20.7869 13.2691 20.7869 12.9212 21.029L6.36276 25.5928C5.57412 26.1416 4.53579 25.3872 4.81401 24.4675L7.12773 16.8198C7.25047 16.4141 7.10776 15.9749 6.77001 15.7189L0.402947 10.8917C-0.362679 10.3112 0.0339303 9.09061 0.994517 9.07104L8.98291 8.90825C9.40667 8.89961 9.78028 8.62816 9.91945 8.22782L12.5428 0.680706Z" fill="#FCC43E"/>
</svg>
