<svg width="1408" height="56" viewBox="0 0 1408 56" fill="none" xmlns="http://www.w3.org/2000/svg">
<path d="M46.6669 18.6667L32.6669 6.39335C31.3835 5.24545 29.7221 4.61084 28.0002 4.61084C26.2784 4.61084 24.6169 5.24545 23.3336 6.39335L9.33355 18.6667C8.59241 19.3295 8.00099 20.1426 7.59866 21.0519C7.19632 21.9612 6.99232 22.9457 7.00022 23.94V44.3333C7.00022 46.1899 7.73772 47.9703 9.05047 49.2831C10.3632 50.5958 12.1437 51.3333 14.0002 51.3333H42.0002C43.8567 51.3333 45.6372 50.5958 46.95 49.2831C48.2627 47.9703 49.0002 46.1899 49.0002 44.3333V23.9167C49.0048 22.9263 48.7992 21.9463 48.397 21.0413C47.9948 20.1363 47.4051 19.3269 46.6669 18.6667ZM32.6669 46.6667H23.3336V35C23.3336 34.3812 23.5794 33.7877 24.017 33.3501C24.4546 32.9125 25.048 32.6667 25.6669 32.6667H30.3336C30.9524 32.6667 31.5459 32.9125 31.9835 33.3501C32.4211 33.7877 32.6669 34.3812 32.6669 35V46.6667ZM44.3336 44.3333C44.3336 44.9522 44.0877 45.5457 43.6501 45.9833C43.2126 46.4208 42.6191 46.6667 42.0002 46.6667H37.3336V35C37.3336 33.1435 36.5961 31.363 35.2833 30.0503C33.9705 28.7375 32.1901 28 30.3336 28H25.6669C23.8104 28 22.0299 28.7375 20.7171 30.0503C19.4044 31.363 18.6669 33.1435 18.6669 35V46.6667H14.0002C13.3814 46.6667 12.7879 46.4208 12.3503 45.9833C11.9127 45.5457 11.6669 44.9522 11.6669 44.3333V23.9167C11.6673 23.5854 11.7383 23.258 11.8751 22.9562C12.0119 22.6545 12.2113 22.3853 12.4602 22.1667L26.4602 9.91668C26.886 9.5426 27.4334 9.3363 28.0002 9.3363C28.567 9.3363 29.1144 9.5426 29.5402 9.91668L43.5402 22.1667C43.7891 22.3853 43.9886 22.6545 44.1254 22.9562C44.2622 23.258 44.3331 23.5854 44.3336 23.9167V44.3333Z" fill="#4D44B5"/>
<path d="M123.956 4.91267C120.756 6.499 118.065 8.95025 116.187 11.9884C114.31 15.0266 113.321 18.5301 113.333 22.1016V30.4032C113.335 31.6218 113.819 32.7901 114.681 33.6519C115.543 34.5136 116.711 34.9984 117.93 34.9998H122.666V48.9998C122.666 49.6187 122.912 50.2122 123.35 50.6498C123.787 51.0873 124.381 51.3332 125 51.3332C125.619 51.3332 126.212 51.0873 126.65 50.6498C127.087 50.2122 127.333 49.6187 127.333 48.9998V6.99984C127.333 6.60221 127.231 6.21125 127.037 5.86404C126.843 5.51682 126.564 5.22485 126.226 5.0158C125.888 4.80675 125.502 4.68755 125.104 4.6695C124.707 4.65146 124.312 4.73516 123.956 4.91267ZM122.666 30.3565L118 30.4032V22.1016C117.993 20.0934 118.404 18.1057 119.208 16.2651C120.011 14.4245 121.189 12.7715 122.666 11.4112V30.3565ZM146 6.99984V16.3332C145.999 16.9518 145.753 17.5448 145.315 17.9822C144.878 18.4196 144.285 18.6657 143.666 18.6665V6.99984C143.666 6.381 143.421 5.78751 142.983 5.34992C142.545 4.91234 141.952 4.6665 141.333 4.6665C140.714 4.6665 140.121 4.91234 139.683 5.34992C139.246 5.78751 139 6.381 139 6.99984V18.6665C138.381 18.6657 137.788 18.4196 137.351 17.9822C136.913 17.5448 136.667 16.9518 136.666 16.3332V6.99984C136.666 6.381 136.421 5.78751 135.983 5.34992C135.545 4.91234 134.952 4.6665 134.333 4.6665C133.714 4.6665 133.121 4.91234 132.683 5.34992C132.246 5.78751 132 6.381 132 6.99984V16.3332C132.002 18.1891 132.74 19.9684 134.052 21.2807C135.365 22.593 137.144 23.3311 139 23.3332V48.9998C139 49.6187 139.246 50.2122 139.683 50.6498C140.121 51.0873 140.714 51.3332 141.333 51.3332C141.952 51.3332 142.545 51.0873 142.983 50.6498C143.421 50.2122 143.666 49.6187 143.666 48.9998V23.3332C145.522 23.3311 147.302 22.593 148.614 21.2807C149.926 19.9684 150.664 18.1891 150.666 16.3332V6.99984C150.666 6.381 150.421 5.78751 149.983 5.34992C149.545 4.91234 148.952 4.6665 148.333 4.6665C147.714 4.6665 147.121 4.91234 146.683 5.34992C146.246 5.78751 146 6.381 146 6.99984Z" fill="#4D44B5"/>
<path d="M214.289 9.35205L215.054 12.6333L218.447 28L215.052 43.3668L214.287 46.648L217.404 45.3915L255.904 29.6416L259.897 28L255.906 26.3586L217.406 10.6086L214.289 9.35205ZM219.156 15.1481L246.335 26.25H221.616L219.156 15.1481ZM221.616 29.75H246.335L219.156 40.852L221.616 29.75Z" fill="#4D44B5"/>
<g clip-path="url(#clip0_58_281)">
<path fill-rule="evenodd" clip-rule="evenodd" d="M337.1 54.25H324.25C321.35 54.25 319 51.8997 319 49V34.4208C319 31.8833 320.815 29.7098 323.31 29.2565C327.01 28.5828 333.388 27.4225 336.997 26.768C338.983 26.4057 341.017 26.4057 343.003 26.768C346.612 27.4225 352.99 28.5828 356.69 29.2565C359.185 29.7098 361 31.8833 361 34.4208C361 38.2375 361 44.9155 361 49C361 51.8997 358.65 54.25 355.75 54.25H337.1ZM353.699 32.27L353.706 32.2788C354.012 32.7373 354.084 33.313 353.9 33.8327L352.665 37.3327C352.504 37.7895 352.159 38.1605 351.715 38.3548L349.39 39.368L350.314 41.2177C350.573 41.734 350.559 42.3447 350.279 42.8505L345.89 50.75H355.75C356.716 50.75 357.5 49.966 357.5 49C357.5 44.9155 357.5 38.2375 357.5 34.4208C357.5 33.5755 356.895 32.851 356.063 32.6987L353.699 32.27ZM348.913 31.3985L342.377 30.2103C340.805 29.925 339.195 29.925 337.623 30.2103L331.087 31.3985L329.691 33.4933L330.382 35.4498L333.7 36.8952C334.139 37.0877 334.481 37.4517 334.645 37.9032C334.81 38.3547 334.78 38.8535 334.564 39.2823L333.227 41.9563L338.113 50.75H341.887L346.773 41.9563L345.436 39.2823C345.22 38.8535 345.19 38.3547 345.355 37.9032C345.519 37.4517 345.861 37.0877 346.3 36.8952L349.618 35.4498L350.309 33.4933L348.913 31.3985ZM326.301 32.27L323.937 32.6987C323.105 32.851 322.5 33.5755 322.5 34.4208V49C322.5 49.966 323.284 50.75 324.25 50.75H334.11L329.72 42.8505C329.44 42.3447 329.427 41.734 329.686 41.2177L330.61 39.368L328.285 38.3548C327.841 38.1605 327.496 37.7895 327.335 37.3327L326.1 33.8327C325.916 33.313 325.988 32.7373 326.294 32.2788L326.301 32.27ZM352.25 42V45.5C352.25 46.466 353.034 47.25 354 47.25C354.966 47.25 355.75 46.466 355.75 45.5V42C355.75 41.034 354.966 40.25 354 40.25C353.034 40.25 352.25 41.034 352.25 42ZM340 1.75C333.723 1.75 328.625 6.84775 328.625 13.125C328.625 19.4023 333.723 24.5 340 24.5C346.277 24.5 351.375 19.4023 351.375 13.125C351.375 6.84775 346.277 1.75 340 1.75ZM340 5.25C344.347 5.25 347.875 8.778 347.875 13.125C347.875 17.472 344.347 21 340 21C335.653 21 332.125 17.472 332.125 13.125C332.125 8.778 335.653 5.25 340 5.25Z" fill="#4D44B5"/>
</g>
<g clip-path="url(#clip1_58_281)">
<path fill-rule="evenodd" clip-rule="evenodd" d="M423 49C423 51.8997 425.35 54.25 428.25 54.25H459.75C462.65 54.25 465 51.8997 465 49C465 44.9155 465 38.2375 465 34.4208C465 31.8833 463.185 29.7098 460.69 29.2565C456.99 28.5828 450.612 27.4225 447.003 26.768C445.017 26.4057 442.983 26.4057 440.997 26.768C437.388 27.4225 431.01 28.5828 427.31 29.2565C424.815 29.7098 423 31.8833 423 34.4208V49ZM448.039 30.513L450.666 40.5003C451.01 41.811 450.549 43.2023 449.488 44.0493C448.592 44.7633 447.18 45.8903 446.2 46.6743C444.914 47.6998 443.086 47.6998 441.8 46.6743C440.82 45.8903 439.408 44.7633 438.512 44.0493C437.451 43.2023 436.99 41.811 437.334 40.5003L439.961 30.513L427.937 32.6987C427.105 32.851 426.5 33.5755 426.5 34.4208V49C426.5 49.966 427.284 50.75 428.25 50.75C435.572 50.75 452.428 50.75 459.75 50.75C460.716 50.75 461.5 49.966 461.5 49C461.5 44.9155 461.5 38.2375 461.5 34.4208C461.5 33.5755 460.895 32.851 460.063 32.6987L448.039 30.513ZM444.285 30.0003C444.095 29.995 443.905 29.995 443.715 30.0003L440.733 41.3438L443.984 43.9372C443.993 43.946 444.007 43.946 444.016 43.9372L447.267 41.3438L444.285 30.0003ZM444 1.75C437.723 1.75 432.625 6.84775 432.625 13.125C432.625 19.4023 437.723 24.5 444 24.5C450.277 24.5 455.375 19.4023 455.375 13.125C455.375 6.84775 450.277 1.75 444 1.75ZM444 5.25C448.347 5.25 451.875 8.778 451.875 13.125C451.875 17.472 448.347 21 444 21C439.653 21 436.125 17.472 436.125 13.125C436.125 8.778 439.653 5.25 444 5.25Z" fill="#4D44B5"/>
</g>
<path d="M564.393 33.1434V17.2684C564.393 8.22876 557.04 0.875 548 0.875C538.96 0.875 531.607 8.22876 531.607 17.2684V33.1445C528.692 33.9893 526.542 36.6702 526.542 39.9655C526.542 43.8175 529.676 46.9518 533.529 46.9518H539.91V47.0347C539.91 51.496 543.539 55.125 548 55.125C552.461 55.125 556.09 51.496 556.09 47.0347V46.9518H562.471C566.324 46.9518 569.458 43.8175 569.458 39.827C569.458 36.6461 567.308 33.9846 564.393 33.1434ZM536.857 17.2684C536.857 11.1238 541.855 6.125 548 6.125C554.145 6.125 559.143 11.1238 559.143 17.2684V32.8407H536.857V17.2684ZM550.84 47.0347C550.84 48.6009 549.566 49.875 548 49.875C546.434 49.875 545.16 48.6009 545.16 47.0347V46.9518H550.84V47.0347H550.84ZM562.471 41.7018H533.529C532.571 41.7018 531.792 40.9225 531.792 39.827C531.792 38.87 532.571 38.0907 533.529 38.0907H562.471C563.429 38.0907 564.208 38.87 564.208 39.9655C564.208 40.9225 563.429 41.7018 562.471 41.7018Z" fill="#4D44B5"/>
<path d="M666 12.25H662.5V10.5C662.5 10.0359 662.316 9.59075 661.987 9.26256C661.659 8.93437 661.214 8.75 660.75 8.75C660.286 8.75 659.841 8.93437 659.513 9.26256C659.184 9.59075 659 10.0359 659 10.5V12.25H653.75V10.5C653.75 10.0359 653.566 9.59075 653.237 9.26256C652.909 8.93437 652.464 8.75 652 8.75C651.536 8.75 651.091 8.93437 650.763 9.26256C650.434 9.59075 650.25 10.0359 650.25 10.5V12.25H645V10.5C645 10.0359 644.816 9.59075 644.487 9.26256C644.159 8.93437 643.714 8.75 643.25 8.75C642.786 8.75 642.341 8.93437 642.013 9.26256C641.684 9.59075 641.5 10.0359 641.5 10.5V12.25H638C636.608 12.25 635.272 12.8031 634.288 13.7877C633.303 14.7723 632.75 16.1076 632.75 17.5V42C632.75 43.3924 633.303 44.7277 634.288 45.7123C635.272 46.6969 636.608 47.25 638 47.25H666C667.392 47.25 668.728 46.6969 669.712 45.7123C670.697 44.7277 671.25 43.3924 671.25 42V17.5C671.25 16.1076 670.697 14.7723 669.712 13.7877C668.728 12.8031 667.392 12.25 666 12.25ZM636.25 17.5C636.25 17.0359 636.434 16.5908 636.763 16.2626C637.091 15.9344 637.536 15.75 638 15.75H641.5V17.5C641.5 17.9641 641.684 18.4092 642.013 18.7374C642.341 19.0656 642.786 19.25 643.25 19.25C643.714 19.25 644.159 19.0656 644.487 18.7374C644.816 18.4092 645 17.9641 645 17.5V15.75H650.25V17.5C650.25 17.9641 650.434 18.4092 650.763 18.7374C651.091 19.0656 651.536 19.25 652 19.25C652.464 19.25 652.909 19.0656 653.237 18.7374C653.566 18.4092 653.75 17.9641 653.75 17.5V15.75H659V17.5C659 17.9641 659.184 18.4092 659.513 18.7374C659.841 19.0656 660.286 19.25 660.75 19.25C661.214 19.25 661.659 19.0656 661.987 18.7374C662.316 18.4092 662.5 17.9641 662.5 17.5V15.75H666C666.464 15.75 666.909 15.9344 667.237 16.2626C667.566 16.5908 667.75 17.0359 667.75 17.5V22.75H636.25V17.5ZM667.75 42C667.75 42.4641 667.566 42.9092 667.237 43.2374C666.909 43.5656 666.464 43.75 666 43.75H638C637.536 43.75 637.091 43.5656 636.763 43.2374C636.434 42.9092 636.25 42.4641 636.25 42V26.25H667.75V42Z" fill="#4D44B5"/>
<path d="M774.666 4.6665H751.333C749.476 4.6665 747.696 5.404 746.383 6.71676C745.071 8.02951 744.333 9.80999 744.333 11.6665V16.3332H737.333C735.476 16.3332 733.696 17.0707 732.383 18.3834C731.071 19.6962 730.333 21.4767 730.333 23.3332V37.3332C730.332 38.7814 730.781 40.1941 731.616 41.3768C732.452 42.5595 733.634 43.4538 735 43.9365V48.9998C735 49.4133 735.111 49.8191 735.32 50.1758C735.529 50.5325 735.829 50.8272 736.19 51.0298C736.538 51.2275 736.932 51.3319 737.333 51.3332C737.752 51.333 738.163 51.2202 738.523 51.0065L749.653 44.3332H760.666C762.523 44.3332 764.303 43.5957 765.616 42.2829C766.929 40.9702 767.666 39.1897 767.666 37.3332V35.8632L773.476 39.3398C773.837 39.5536 774.248 39.6664 774.666 39.6665C775.067 39.6653 775.461 39.5608 775.81 39.3632C776.17 39.1606 776.47 38.8659 776.679 38.5092C776.888 38.1525 776.999 37.7466 777 37.3332V32.2698C778.365 31.7871 779.547 30.8928 780.383 29.7101C781.219 28.5275 781.667 27.1147 781.666 25.6665V11.6665C781.666 9.80999 780.929 8.02951 779.616 6.71676C778.303 5.404 776.523 4.6665 774.666 4.6665ZM763 37.3332C763 37.952 762.754 38.5455 762.316 38.9831C761.879 39.4207 761.285 39.6665 760.666 39.6665H749C748.581 39.6666 748.17 39.7795 747.81 39.9932L739.666 44.8698V41.9998C739.666 41.381 739.421 40.7875 738.983 40.3499C738.545 39.9123 737.952 39.6665 737.333 39.6665C736.714 39.6665 736.121 39.4207 735.683 38.9831C735.246 38.5455 735 37.952 735 37.3332V23.3332C735 22.7143 735.246 22.1208 735.683 21.6833C736.121 21.2457 736.714 20.9998 737.333 20.9998H744.333V25.6665C744.333 27.523 745.071 29.3035 746.383 30.6163C747.696 31.929 749.476 32.6665 751.333 32.6665H762.346L763 33.0632V37.3332ZM777 25.6665C777 26.2853 776.754 26.8788 776.316 27.3164C775.879 27.754 775.285 27.9998 774.666 27.9998C774.048 27.9998 773.454 28.2457 773.016 28.6833C772.579 29.1208 772.333 29.7143 772.333 30.3332V33.2032L764.19 28.3265C763.83 28.1128 763.418 28 763 27.9998H751.333C750.714 27.9998 750.121 27.754 749.683 27.3164C749.246 26.8788 749 26.2853 749 25.6665V11.6665C749 11.0477 749.246 10.4542 749.683 10.0166C750.121 9.579 750.714 9.33317 751.333 9.33317H774.666C775.285 9.33317 775.879 9.579 776.316 10.0166C776.754 10.4542 777 11.0477 777 11.6665V25.6665Z" fill="#4D44B5"/>
<path d="M860 4.6665C855.385 4.6665 850.874 6.03498 847.037 8.59888C843.2 11.1628 840.209 14.8069 838.443 19.0706C836.677 23.3342 836.215 28.0257 837.115 32.5519C838.016 37.0782 840.238 41.2358 843.501 44.499C846.764 47.7622 850.922 49.9845 855.448 50.8848C859.974 51.7851 864.666 51.3231 868.93 49.557C873.193 47.791 876.837 44.8003 879.401 40.9631C881.965 37.126 883.334 32.6147 883.334 27.9998C883.334 24.9357 882.73 21.9015 881.558 19.0706C880.385 16.2396 878.666 13.6674 876.499 11.5007C874.333 9.33398 871.761 7.61526 868.93 6.44265C866.099 5.27004 863.065 4.6665 860 4.6665ZM860 46.6665C856.308 46.6665 852.699 45.5717 849.63 43.5206C846.56 41.4695 844.167 38.5541 842.755 35.1433C841.342 31.7324 840.972 27.9791 841.692 24.3582C842.413 20.7372 844.19 17.4111 846.801 14.8005C849.412 12.1899 852.738 10.4121 856.359 9.69185C859.98 8.97159 863.733 9.34125 867.144 10.7541C870.555 12.1669 873.47 14.5595 875.521 17.6292C877.572 20.6989 878.667 24.3079 878.667 27.9998C878.667 32.9505 876.7 37.6985 873.2 41.1992C869.699 44.6998 864.951 46.6665 860 46.6665Z" fill="#4D44B5"/>
<path d="M867 25.6667H862.334V16.3333C862.334 15.7145 862.088 15.121 861.65 14.6834C861.213 14.2458 860.619 14 860 14C859.381 14 858.788 14.2458 858.35 14.6834C857.913 15.121 857.667 15.7145 857.667 16.3333V28C857.667 28.6188 857.913 29.2123 858.35 29.6499C858.788 30.0875 859.381 30.3333 860 30.3333H867C867.619 30.3333 868.213 30.0875 868.65 29.6499C869.088 29.2123 869.334 28.6188 869.334 28C869.334 27.3812 869.088 26.7877 868.65 26.3501C868.213 25.9125 867.619 25.6667 867 25.6667Z" fill="#4D44B5"/>
<path d="M980.352 33.2082C981.64 32.0882 982.48 30.4082 982.48 28.5602C982.48 25.1442 979.736 22.4002 976.32 22.4002C972.904 22.4002 970.16 25.1442 970.16 28.5602C970.16 30.4082 971 32.0882 972.288 33.2082C971.112 33.6562 969.992 34.2722 968.984 35.0562C967.864 33.4882 966.072 32.4802 964 32.4802C961.928 32.4802 960.136 33.4882 959.016 35.0562C958.008 34.2722 956.944 33.6562 955.712 33.2082C957 32.0882 957.84 30.4082 957.84 28.5602C957.84 25.1442 955.096 22.4002 951.68 22.4002C948.264 22.4002 945.52 25.1442 945.52 28.5602C945.52 30.4082 946.36 32.0882 947.648 33.2082C943.168 34.8322 939.92 39.2001 939.92 44.2402V51.5201C939.92 52.1362 940.424 52.6401 941.04 52.6401H986.96C987.576 52.6401 988.08 52.1362 988.08 51.5201V44.2402C988.08 39.2001 984.832 34.8322 980.352 33.2082ZM976.32 24.6402C978.504 24.6402 980.24 26.3762 980.24 28.5602C980.24 30.7442 978.504 32.4802 976.32 32.4802C974.136 32.4802 972.4 30.7442 972.4 28.5602C972.4 26.3762 974.136 24.6402 976.32 24.6402ZM964 34.7202C966.184 34.7202 967.92 36.4562 967.92 38.6402C967.92 40.8242 966.184 42.5602 964 42.5602C961.816 42.5602 960.08 40.8242 960.08 38.6402C960.08 36.4562 961.816 34.7202 964 34.7202ZM951.68 24.6402C953.864 24.6402 955.6 26.3762 955.6 28.5602C955.6 30.7442 953.864 32.4802 951.68 32.4802C949.496 32.4802 947.76 30.7442 947.76 28.5602C947.76 26.3762 949.496 24.6402 951.68 24.6402ZM942.16 50.4002V44.2402C942.16 38.9762 946.416 34.7202 951.68 34.7202C954.144 34.7202 956.328 35.6722 958.008 37.1842C957.896 37.6322 957.84 38.1362 957.84 38.6402C957.84 40.6002 958.792 42.3361 960.192 43.4562C957.616 44.7441 955.824 47.3761 955.6 50.4002H942.16ZM957.84 50.4002C958.12 47.2641 960.752 44.8001 964 44.8001C967.248 44.8001 969.88 47.2641 970.16 50.4002H957.84ZM985.84 50.4002H972.4C972.176 47.3761 970.384 44.8001 967.808 43.4562C969.264 42.3361 970.16 40.6002 970.16 38.6402C970.16 38.1362 970.104 37.6322 969.992 37.1842C971.672 35.6722 973.912 34.7202 976.32 34.7202C981.584 34.7202 985.84 38.9762 985.84 44.2402V50.4002ZM955.824 18.4802L963.328 24.4162C963.552 24.5842 963.776 24.6402 964 24.6402C964.224 24.6402 964.504 24.5842 964.672 24.4162L972.176 18.4802C975.592 15.6802 976.992 11.9282 975.872 8.45615C974.92 5.54415 972.512 3.52815 969.768 3.36015C969.6 3.36015 969.488 3.36015 969.32 3.36015C967.304 3.36015 965.4 4.14415 964 5.54415C962.488 4.03215 960.36 3.24815 958.232 3.36015C955.488 3.52815 953.08 5.54415 952.128 8.45615C951.008 11.9282 952.352 15.6802 955.824 18.4802ZM954.256 9.12815C954.872 7.16815 956.608 5.71215 958.344 5.60015C958.456 5.60015 958.568 5.60015 958.68 5.60015C960.416 5.60015 962.096 6.44015 963.104 7.89615C963.328 8.17615 963.664 8.34415 964 8.34415C964.336 8.34415 964.672 8.17615 964.896 7.89615C965.904 6.44015 967.584 5.60015 969.32 5.60015C969.432 5.60015 969.544 5.60015 969.656 5.60015C971.448 5.71215 973.128 7.16815 973.744 9.12815C974.584 11.7042 973.52 14.5042 970.776 16.6882L964 22.1202L957.224 16.7442C954.48 14.5042 953.416 11.7601 954.256 9.12815Z" fill="#4D44B5"/>
<path d="M1090.73 30.5809C1087.59 29.444 1084.11 29.6968 1081.17 31.2724L1076.37 33.4303C1075.99 31.221 1074.29 29.5607 1072.19 29.4969C1072.18 29.4966 1065 29.4156 1065 29.4156C1059.25 27.8391 1055.52 29.8648 1053.39 31.8611C1052.95 32.2694 1052.57 32.6898 1052.23 33.1044C1051.66 32.4853 1050.64 32.3199 1049.9 32.7267L1043.39 36.3095C1042.54 36.7743 1042.17 37.7939 1042.53 38.6901L1048.9 54.7928C1049.32 55.8508 1050.6 56.3184 1051.61 55.7667L1058.12 52.1839C1058.74 51.848 1059.09 51.2222 1059.11 50.5627H1068.84C1070.43 50.5627 1072 50.146 1073.37 49.3574C1073.37 49.3574 1091.67 38.8624 1091.77 38.7686C1094.33 36.4378 1094.41 31.9152 1090.73 30.5809C1092.2 31.1131 1087.59 29.444 1090.73 30.5809ZM1051.66 51.3632L1046.72 38.8511L1049.85 37.1303L1054.8 49.6423L1051.66 51.3632ZM1089.32 35.8082L1071.46 46.0357C1070.67 46.4922 1069.76 46.7334 1068.84 46.7334H1057.77L1054.05 37.3338C1054.37 36.6848 1055 35.6079 1056.01 34.6531C1058.1 32.6977 1060.85 32.1972 1064.19 33.1658C1064.36 33.2142 1064.53 33.2397 1064.7 33.2417L1072.08 33.3248C1072.27 33.3411 1072.62 33.76 1072.62 34.3951C1072.62 35.0489 1072.26 35.4658 1072.07 35.4658H1064.82V39.2951H1072.07C1072.97 39.2951 1073.81 38.9913 1074.5 38.4708L1082.81 34.7353C1082.85 34.7155 1082.9 34.6942 1082.94 34.6711C1084.93 33.5879 1087.29 33.409 1089.42 34.1803C1090.26 34.4857 1089.66 35.471 1089.32 35.8082ZM1077.8 27.5911C1070.19 27.5911 1064.01 21.4024 1064.01 13.7955C1064.01 6.18872 1070.19 0 1077.8 0C1085.41 0 1091.59 6.18872 1091.59 13.7955C1091.59 21.4024 1085.41 27.5911 1077.8 27.5911ZM1077.8 3.8293C1072.31 3.8293 1067.84 8.30009 1067.84 13.7955C1067.84 19.2909 1072.31 23.7617 1077.8 23.7617C1083.29 23.7617 1087.76 19.2908 1087.76 13.7955C1087.76 8.30021 1083.29 3.8293 1077.8 3.8293Z" fill="#4D44B5"/>
<path d="M1078.69 12.235C1077.16 11.6087 1077.05 11.3396 1077.05 11.0276C1077.05 10.8284 1077.15 10.3652 1078.06 10.3652C1078.9 10.3652 1079.94 10.8356 1080.68 11.3203L1081.7 8.6352C1080.97 8.16961 1080.08 7.76959 1079.25 7.64168V5.89551H1076.52V7.81159C1074.9 8.32301 1073.9 9.62011 1073.9 11.2348C1073.9 13.3733 1075.61 14.3281 1077.28 14.9789C1078.62 15.516 1078.73 15.9272 1078.73 16.2705C1078.73 16.7985 1078.24 17.1397 1077.49 17.1397C1076.51 17.1397 1075.37 16.5732 1074.57 15.9534L1073.58 18.6816C1074.4 19.3136 1075.34 19.7307 1076.4 19.8864V21.6958H1079.15V19.7262C1080.82 19.1934 1081.89 17.8071 1081.89 16.1496C1081.89 13.8294 1080.18 12.8389 1078.69 12.235Z" fill="#4D44B5"/>
<path d="M1188.39 33.1434V17.2684C1188.39 8.22876 1181.04 0.875 1172 0.875C1162.96 0.875 1155.61 8.22876 1155.61 17.2684V33.1445C1152.69 33.9893 1150.54 36.6702 1150.54 39.9655C1150.54 43.8175 1153.68 46.9518 1157.53 46.9518H1163.91V47.0347C1163.91 51.496 1167.54 55.125 1172 55.125C1176.46 55.125 1180.09 51.496 1180.09 47.0347V46.9518H1186.47C1190.32 46.9518 1193.46 43.8175 1193.46 39.827C1193.46 36.6461 1191.31 33.9846 1188.39 33.1434ZM1160.86 17.2684C1160.86 11.1238 1165.86 6.125 1172 6.125C1178.14 6.125 1183.14 11.1238 1183.14 17.2684V32.8407H1160.86V17.2684ZM1174.84 47.0347C1174.84 48.6009 1173.57 49.875 1172 49.875C1170.43 49.875 1169.16 48.6009 1169.16 47.0347V46.9518H1174.84V47.0347H1174.84ZM1186.47 41.7018H1157.53C1156.57 41.7018 1155.79 40.9225 1155.79 39.827C1155.79 38.87 1156.57 38.0907 1157.53 38.0907H1186.47C1187.43 38.0907 1188.21 38.87 1188.21 39.9655C1188.21 40.9225 1187.43 41.7018 1186.47 41.7018Z" fill="#4D44B5"/>
<path d="M1276 21.8398C1275.19 21.8398 1274.39 21.9992 1273.64 22.309C1272.9 22.6187 1272.22 23.0726 1271.65 23.6449C1271.07 24.2172 1270.62 24.8965 1270.31 25.6442C1270 26.3919 1269.84 27.1933 1269.84 28.0026C1269.84 28.812 1270 29.6133 1270.31 30.361C1270.62 31.1088 1271.07 31.7881 1271.65 32.3604C1272.22 32.9327 1272.9 33.3866 1273.64 33.6963C1274.39 34.006 1275.19 34.1654 1276 34.1654C1277.64 34.1651 1279.2 33.5154 1280.36 32.3594C1281.52 31.2034 1282.16 29.6357 1282.16 28.0012C1282.16 26.3668 1281.51 24.7994 1280.36 23.6439C1279.2 22.4884 1277.63 21.8395 1276 21.8398H1276ZM1256.4 21.8398C1255.59 21.8398 1254.79 21.9992 1254.04 22.309C1253.3 22.6187 1252.62 23.0726 1252.05 23.6449C1251.47 24.2172 1251.02 24.8965 1250.71 25.6442C1250.4 26.3919 1250.24 27.1933 1250.24 28.0026C1250.24 28.812 1250.4 29.6133 1250.71 30.361C1251.02 31.1088 1251.47 31.7881 1252.05 32.3604C1252.62 32.9327 1253.3 33.3866 1254.04 33.6963C1254.79 34.006 1255.59 34.1654 1256.4 34.1654C1258.04 34.1651 1259.6 33.5154 1260.76 32.3594C1261.92 31.2034 1262.56 29.6357 1262.56 28.0012C1262.56 26.3668 1261.91 24.7994 1260.76 23.6439C1259.6 22.4884 1258.03 21.8395 1256.4 21.8398H1256.4ZM1295.6 21.8398C1294.79 21.8398 1293.99 21.9992 1293.24 22.309C1292.5 22.6187 1291.82 23.0726 1291.25 23.6449C1290.67 24.2172 1290.22 24.8965 1289.91 25.6442C1289.6 26.3919 1289.44 27.1933 1289.44 28.0026C1289.44 28.812 1289.6 29.6133 1289.91 30.361C1290.22 31.1088 1290.67 31.7881 1291.25 32.3604C1291.82 32.9327 1292.5 33.3866 1293.24 33.6963C1293.99 34.006 1294.79 34.1654 1295.6 34.1654C1297.24 34.1651 1298.8 33.5154 1299.96 32.3594C1301.12 31.2034 1301.76 29.6357 1301.76 28.0012C1301.76 26.3668 1301.11 24.7994 1299.96 23.6439C1298.8 22.4884 1297.23 21.8395 1295.6 21.8398H1295.6Z" fill="#4D44B5"/>
<g clip-path="url(#clip2_58_281)">
<path d="M1405.67 44.3332H1396.17C1395.55 44.3332 1394.96 44.0873 1394.52 43.6498C1394.08 43.2122 1393.84 42.6187 1393.84 41.9998V34.9998H1366V41.9998C1366 42.6187 1365.75 43.2122 1365.32 43.6498C1364.88 44.0873 1364.29 44.3332 1363.67 44.3332H1354.33C1353.71 44.3332 1353.12 44.0873 1352.68 43.6498C1352.25 43.2122 1352 42.6187 1352 41.9998V18.6665C1352 16.81 1352.74 15.0295 1354.05 13.7168C1355.36 12.404 1357.14 11.6665 1359 11.6665H1401C1402.86 11.6665 1404.64 12.404 1405.95 13.7168C1407.26 15.0295 1408 16.81 1408 18.6665V41.9998C1408 42.6187 1407.75 43.2122 1407.32 43.6498C1406.88 44.0873 1406.29 44.3332 1405.67 44.3332ZM1398.5 39.6665H1403.33V18.6665C1403.34 18.3591 1403.28 18.0542 1403.16 17.7695C1403.05 17.4849 1402.87 17.2263 1402.66 17.0089C1402.44 16.7916 1402.18 16.6198 1401.9 16.5038C1401.61 16.3877 1401.31 16.3297 1401 16.3332H1359C1358.69 16.3297 1358.39 16.3877 1358.1 16.5038C1357.82 16.6198 1357.56 16.7916 1357.34 17.0089C1357.13 17.2263 1356.95 17.4849 1356.84 17.7695C1356.72 18.0542 1356.66 18.3591 1356.67 18.6665V39.6665H1361.33V32.6665C1361.33 32.0477 1361.58 31.4542 1362.02 31.0166C1362.45 30.579 1363.05 30.3332 1363.67 30.3332H1396.17C1396.79 30.3332 1397.38 30.579 1397.82 31.0166C1398.26 31.4542 1398.5 32.0477 1398.5 32.6665V39.6665Z" fill="#4D44B5"/>
<path d="M1396.18 16.3333H1363.67C1363.05 16.3333 1362.45 16.0875 1362.02 15.6499C1361.58 15.2123 1361.33 14.6188 1361.33 14V2.33333C1361.33 1.71449 1361.58 1.121 1362.02 0.683417C1362.45 0.245833 1363.05 0 1363.67 0L1396.18 0C1396.8 0 1397.39 0.245833 1397.83 0.683417C1398.26 1.121 1398.51 1.71449 1398.51 2.33333V14C1398.51 14.6188 1398.26 15.2123 1397.83 15.6499C1397.39 16.0875 1396.8 16.3333 1396.18 16.3333ZM1366 11.6667H1393.84V4.66667H1366V11.6667ZM1391.74 56H1368.1C1366.31 56 1364.58 55.2871 1363.31 54.0181C1362.05 52.7491 1361.33 51.028 1361.33 49.2333V32.6667C1361.33 32.0478 1361.58 31.4543 1362.02 31.0168C1362.45 30.5792 1363.05 30.3333 1363.67 30.3333H1396.17C1396.79 30.3333 1397.38 30.5792 1397.82 31.0168C1398.26 31.4543 1398.5 32.0478 1398.5 32.6667V49.2333C1398.5 51.0268 1397.79 52.7468 1396.52 54.0156C1395.26 55.2844 1393.54 55.9981 1391.74 56ZM1366 35V49.2333C1366 49.7903 1366.22 50.3244 1366.61 50.7183C1367.01 51.1121 1367.54 51.3333 1368.1 51.3333H1391.74C1392.3 51.3333 1392.83 51.1121 1393.23 50.7183C1393.62 50.3244 1393.84 49.7903 1393.84 49.2333V35H1366ZM1398.67 23.3333H1396.33C1395.71 23.3333 1395.12 23.0875 1394.68 22.6499C1394.25 22.2123 1394 21.6188 1394 21C1394 20.3812 1394.25 19.7877 1394.68 19.3501C1395.12 18.9125 1395.71 18.6667 1396.33 18.6667H1398.67C1399.29 18.6667 1399.88 18.9125 1400.32 19.3501C1400.75 19.7877 1401 20.3812 1401 21C1401 21.6188 1400.75 22.2123 1400.32 22.6499C1399.88 23.0875 1399.29 23.3333 1398.67 23.3333Z" fill="#4D44B5"/>
<path d="M1387 42.0002H1373C1372.38 42.0002 1371.79 41.7543 1371.35 41.3167C1370.91 40.8792 1370.67 40.2857 1370.67 39.6668C1370.67 39.048 1370.91 38.4545 1371.35 38.0169C1371.79 37.5793 1372.38 37.3335 1373 37.3335H1387C1387.62 37.3335 1388.21 37.5793 1388.65 38.0169C1389.09 38.4545 1389.33 39.048 1389.33 39.6668C1389.33 40.2857 1389.09 40.8792 1388.65 41.3167C1388.21 41.7543 1387.62 42.0002 1387 42.0002ZM1380 49.0002H1373C1372.38 49.0002 1371.79 48.7543 1371.35 48.3167C1370.91 47.8792 1370.67 47.2857 1370.67 46.6668C1370.67 46.048 1370.91 45.4545 1371.35 45.0169C1371.79 44.5793 1372.38 44.3335 1373 44.3335H1380C1380.62 44.3335 1381.21 44.5793 1381.65 45.0169C1382.09 45.4545 1382.33 46.048 1382.33 46.6668C1382.33 47.2857 1382.09 47.8792 1381.65 48.3167C1381.21 48.7543 1380.62 49.0002 1380 49.0002Z" fill="#4D44B5"/>
</g>
<defs>
<clipPath id="clip0_58_281">
<rect width="56" height="56" fill="white" transform="translate(312)"/>
</clipPath>
<clipPath id="clip1_58_281">
<rect width="56" height="56" fill="white" transform="translate(416)"/>
</clipPath>
<clipPath id="clip2_58_281">
<rect width="56" height="56" fill="white" transform="translate(1352)"/>
</clipPath>
</defs>
</svg>
