<svg width="40" height="40" viewBox="0 0 40 40" fill="none" xmlns="http://www.w3.org/2000/svg">
<path d="M14.2549 3.50918C11.9692 4.64227 10.0468 6.39316 8.70566 8.56328C7.3645 10.7334 6.65828 13.2359 6.66707 15.787V21.7167C6.66813 22.5871 7.01439 23.4217 7.62991 24.0372C8.24542 24.6527 9.07994 24.999 9.95041 25H13.3337V35C13.3337 35.442 13.5093 35.866 13.8219 36.1785C14.1345 36.4911 14.5584 36.6667 15.0004 36.6667C15.4424 36.6667 15.8664 36.4911 16.1789 36.1785C16.4915 35.866 16.6671 35.442 16.6671 35V5.00001C16.6668 4.71599 16.5941 4.43674 16.4556 4.18872C16.3172 3.94071 16.1178 3.73216 15.8762 3.58284C15.6346 3.43352 15.3588 3.34838 15.0751 3.33549C14.7914 3.32259 14.5091 3.38238 14.2549 3.50918ZM13.3337 21.6833L10.0004 21.7167V15.787C9.99541 14.3525 10.2892 12.9327 10.8631 11.6181C11.437 10.3034 12.2784 9.12262 13.3337 8.15101V21.6833ZM30.0004 5.00001V11.6667C29.9998 12.1085 29.8241 12.5321 29.5116 12.8446C29.1992 13.157 28.7756 13.3328 28.3337 13.3333V5.00001C28.3337 4.55798 28.1581 4.13406 27.8456 3.8215C27.533 3.50894 27.1091 3.33334 26.6671 3.33334C26.225 3.33334 25.8011 3.50894 25.4886 3.8215C25.176 4.13406 25.0004 4.55798 25.0004 5.00001V13.3333C24.5586 13.3328 24.135 13.157 23.8225 12.8446C23.5101 12.5321 23.3343 12.1085 23.3337 11.6667V5.00001C23.3337 4.55798 23.1581 4.13406 22.8456 3.8215C22.533 3.50894 22.1091 3.33334 21.6671 3.33334C21.225 3.33334 20.8011 3.50894 20.4886 3.8215C20.176 4.13406 20.0004 4.55798 20.0004 5.00001V11.6667C20.0019 12.9923 20.5291 14.2632 21.4665 15.2006C22.4038 16.138 23.6748 16.6652 25.0004 16.6667V35C25.0004 35.442 25.176 35.866 25.4886 36.1785C25.8011 36.4911 26.225 36.6667 26.6671 36.6667C27.1091 36.6667 27.533 36.4911 27.8456 36.1785C28.1581 35.866 28.3337 35.442 28.3337 35V16.6667C29.6594 16.6652 30.9303 16.138 31.8677 15.2006C32.805 14.2632 33.3323 12.9923 33.3337 11.6667V5.00001C33.3337 4.55798 33.1581 4.13406 32.8456 3.8215C32.533 3.50894 32.1091 3.33334 31.6671 3.33334C31.225 3.33334 30.8011 3.50894 30.4886 3.8215C30.176 4.13406 30.0004 4.55798 30.0004 5.00001Z" fill="#4D44B5"/>
</svg>
