<svg width="25" height="16" viewBox="0 0 25 16" fill="none" xmlns="http://www.w3.org/2000/svg">
<path d="M24.0023 1.33333C24.015 1.24043 24.015 1.14624 24.0023 1.05333C23.9907 0.975052 23.9683 0.898765 23.9357 0.826666C23.9004 0.761503 23.8603 0.699103 23.8157 0.64C23.7649 0.555671 23.702 0.479292 23.629 0.413333L23.469 0.32C23.392 0.262609 23.3066 0.21762 23.2157 0.186666H22.949C22.8678 0.107993 22.7729 0.0447434 22.669 0H16.0023C15.6487 0 15.3096 0.140476 15.0595 0.390525C14.8095 0.640573 14.669 0.979711 14.669 1.33333C14.669 1.68696 14.8095 2.02609 15.0595 2.27614C15.3096 2.52619 15.6487 2.66667 16.0023 2.66667H19.7757L14.4423 8.94667L8.68235 5.52C8.40952 5.35773 8.08776 5.29813 7.77491 5.3519C7.46207 5.40567 7.17867 5.56929 6.97568 5.81333L0.309014 13.8133C0.196744 13.9481 0.112158 14.1036 0.0600985 14.2711C0.00803917 14.4386 -0.0104699 14.6147 0.00563128 14.7893C0.0217324 14.9639 0.0721275 15.1337 0.15393 15.2888C0.235733 15.4439 0.347336 15.5814 0.482347 15.6933C0.72223 15.8921 1.02414 16.0006 1.33568 16C1.53156 16.0003 1.72511 15.9575 1.90255 15.8745C2.08 15.7915 2.23698 15.6705 2.36235 15.52L8.29568 8.4L13.989 11.8133C14.2591 11.9735 14.577 12.0332 14.8867 11.982C15.1965 11.9308 15.4782 11.7719 15.6823 11.5333L21.3357 4.93333V8C21.3357 8.35362 21.4762 8.69276 21.7262 8.94281C21.9762 9.19286 22.3154 9.33333 22.669 9.33333C23.0226 9.33333 23.3618 9.19286 23.6118 8.94281C23.8619 8.69276 24.0023 8.35362 24.0023 8V1.33333Z" fill="#FCFCFC"/>
</svg>
