<svg width="7" height="11" viewBox="0 0 7 11" fill="none" xmlns="http://www.w3.org/2000/svg">
<path d="M0 9.64811C1.23209 8.65856 2.19738 7.84849 2.89589 7.21789C3.59439 6.5776 4.18133 5.91305 4.65671 5.22424C5.14178 4.52574 5.38432 3.84178 5.38432 3.17238C5.38432 2.54179 5.22909 2.04701 4.91865 1.68806C4.6179 1.3194 4.12798 1.13507 3.44887 1.13507C2.78917 1.13507 2.27499 1.34365 1.90634 1.76082C1.54738 2.16828 1.35336 2.71641 1.32425 3.40522H0.0436566C0.0824625 2.31865 0.412312 1.47947 1.03321 0.887685C1.6541 0.295895 2.45447 0 3.43432 0C4.43357 0 5.22424 0.276492 5.80633 0.829476C6.39812 1.38246 6.69401 2.14403 6.69401 3.11417C6.69401 3.91939 6.45148 4.70521 5.9664 5.47163C5.49103 6.22834 4.94775 6.89775 4.33656 7.47983C3.72536 8.05222 2.9444 8.72162 1.99365 9.48804H6.99961V10.594H0V9.64811Z" fill="white"/>
</svg>
