<svg width="50" height="50" viewBox="0 0 50 50" fill="none" xmlns="http://www.w3.org/2000/svg">
<path d="M25.0003 14.583C23.7503 14.583 22.917 15.4163 22.917 16.6663C22.917 17.9163 23.7503 18.7497 25.0003 18.7497C26.2503 18.7497 27.0837 17.9163 27.0837 16.6663C27.0837 15.4163 26.2503 14.583 25.0003 14.583Z" fill="#363B64"/>
<path d="M25.0003 4.1665C13.542 4.1665 4.16699 13.5415 4.16699 24.9998C4.16699 36.4582 13.542 45.8332 25.0003 45.8332C36.4587 45.8332 45.8337 36.4582 45.8337 24.9998C45.8337 13.5415 36.4587 4.1665 25.0003 4.1665ZM25.0003 41.6665C15.8337 41.6665 8.33366 34.1665 8.33366 24.9998C8.33366 15.8332 15.8337 8.33317 25.0003 8.33317C34.167 8.33317 41.667 15.8332 41.667 24.9998C41.667 34.1665 34.167 41.6665 25.0003 41.6665Z" fill="#363B64"/>
<path d="M25.0003 20.833C23.7503 20.833 22.917 21.6663 22.917 22.9163V33.333C22.917 34.583 23.7503 35.4163 25.0003 35.4163C26.2503 35.4163 27.0837 34.583 27.0837 33.333V22.9163C27.0837 21.6663 26.2503 20.833 25.0003 20.833Z" fill="#363B64"/>
</svg>
