<svg width="27" height="26" viewBox="0 0 27 26" fill="none" xmlns="http://www.w3.org/2000/svg">
<path d="M12.5428 0.680633C12.8583 -0.226875 14.1417 -0.226875 14.4572 0.680633L17.0805 8.22761C17.2197 8.62795 17.5933 8.8994 18.017 8.90803L26.0053 9.07082C26.9658 9.0904 27.3624 10.311 26.5968 10.8915L20.2299 15.7185C19.8921 15.9746 19.7494 16.4138 19.8722 16.8195L22.1858 24.4671C22.4641 25.3867 21.4257 26.1411 20.6371 25.5923L14.0788 21.0286C13.7309 20.7865 13.2691 20.7865 12.9212 21.0286L6.36288 25.5923C5.57426 26.1411 4.53594 25.3867 4.81416 24.4671L7.12784 16.8195C7.25057 16.4138 7.10787 15.9746 6.77012 15.7185L0.403172 10.8915C-0.36244 10.311 0.0341617 9.0904 0.994732 9.07082L8.98299 8.90803C9.40674 8.8994 9.78035 8.62795 9.91951 8.22761L12.5428 0.680633Z" fill="#FCC43E"/>
</svg>
