<svg width="248" height="72" viewBox="0 0 248 72" fill="none" xmlns="http://www.w3.org/2000/svg">
<rect width="72" height="72" rx="36" fill="#4D44B5"/>
<g clip-path="url(#clip0_38_556)">
<path fill-rule="evenodd" clip-rule="evenodd" d="M33.9288 54.75H24.75C22.6788 54.75 21 53.0713 21 51V40.5863C21 38.7738 22.2962 37.2213 24.0787 36.8975C26.7212 36.4163 31.2775 35.5875 33.855 35.12C35.2737 34.8612 36.7263 34.8612 38.145 35.12C40.7225 35.5875 45.2788 36.4163 47.9213 36.8975C49.7038 37.2213 51 38.7738 51 40.5863C51 43.3125 51 48.0825 51 51C51 53.0713 49.3212 54.75 47.25 54.75H33.9288ZM45.785 39.05L45.79 39.0563C46.0088 39.3838 46.06 39.795 45.9287 40.1662L45.0462 42.6662C44.9312 42.9925 44.685 43.2575 44.3675 43.3963L42.7075 44.12L43.3675 45.4412C43.5525 45.81 43.5425 46.2462 43.3425 46.6075L40.2075 52.25H47.25C47.94 52.25 48.5 51.69 48.5 51C48.5 48.0825 48.5 43.3125 48.5 40.5863C48.5 39.9825 48.0675 39.465 47.4738 39.3562L45.785 39.05ZM42.3663 38.4275L37.6975 37.5788C36.575 37.375 35.425 37.375 34.3025 37.5788L29.6337 38.4275L28.6363 39.9238L29.13 41.3213L31.5 42.3537C31.8138 42.4912 32.0575 42.7512 32.175 43.0737C32.2925 43.3962 32.2712 43.7525 32.1175 44.0588L31.1625 45.9688L34.6525 52.25H37.3475L40.8375 45.9688L39.8825 44.0588C39.7288 43.7525 39.7075 43.3962 39.825 43.0737C39.9425 42.7512 40.1862 42.4912 40.5 42.3537L42.87 41.3213L43.3638 39.9238L42.3663 38.4275ZM26.215 39.05L24.5262 39.3562C23.9325 39.465 23.5 39.9825 23.5 40.5863V51C23.5 51.69 24.06 52.25 24.75 52.25H31.7925L28.6575 46.6075C28.4575 46.2462 28.4475 45.81 28.6325 45.4412L29.2925 44.12L27.6325 43.3963C27.315 43.2575 27.0688 42.9925 26.9538 42.6662L26.0712 40.1662C25.94 39.795 25.9912 39.3838 26.21 39.0563L26.215 39.05ZM44.75 46V48.5C44.75 49.19 45.31 49.75 46 49.75C46.69 49.75 47.25 49.19 47.25 48.5V46C47.25 45.31 46.69 44.75 46 44.75C45.31 44.75 44.75 45.31 44.75 46ZM36 17.25C31.5163 17.25 27.875 20.8913 27.875 25.375C27.875 29.8587 31.5163 33.5 36 33.5C40.4837 33.5 44.125 29.8587 44.125 25.375C44.125 20.8913 40.4837 17.25 36 17.25ZM36 19.75C39.105 19.75 41.625 22.27 41.625 25.375C41.625 28.48 39.105 31 36 31C32.895 31 30.375 28.48 30.375 25.375C30.375 22.27 32.895 19.75 36 19.75Z" fill="white"/>
</g>
<rect x="88" width="72" height="72" rx="36" fill="#FB7D5B"/>
<g clip-path="url(#clip1_38_556)">
<path fill-rule="evenodd" clip-rule="evenodd" d="M109 51C109 53.0713 110.679 54.75 112.75 54.75H135.25C137.321 54.75 139 53.0713 139 51C139 48.0825 139 43.3125 139 40.5863C139 38.7738 137.704 37.2213 135.921 36.8975C133.279 36.4163 128.723 35.5875 126.145 35.12C124.726 34.8612 123.274 34.8612 121.855 35.12C119.277 35.5875 114.721 36.4163 112.079 36.8975C110.296 37.2213 109 38.7738 109 40.5863V51ZM126.885 37.795L128.761 44.9288C129.007 45.865 128.678 46.8588 127.92 47.4638C127.28 47.9738 126.271 48.7788 125.571 49.3388C124.653 50.0713 123.347 50.0713 122.429 49.3388C121.729 48.7788 120.72 47.9738 120.08 47.4638C119.322 46.8588 118.993 45.865 119.239 44.9288L121.115 37.795L112.526 39.3562C111.932 39.465 111.5 39.9825 111.5 40.5863V51C111.5 51.69 112.06 52.25 112.75 52.25C117.98 52.25 130.02 52.25 135.25 52.25C135.94 52.25 136.5 51.69 136.5 51C136.5 48.0825 136.5 43.3125 136.5 40.5863C136.5 39.9825 136.068 39.465 135.474 39.3562L126.885 37.795ZM124.204 37.4288C124.068 37.425 123.932 37.425 123.796 37.4288L121.666 45.5312L123.989 47.3837C123.995 47.39 124.005 47.39 124.011 47.3837L126.334 45.5312L124.204 37.4288ZM124 17.25C119.516 17.25 115.875 20.8913 115.875 25.375C115.875 29.8587 119.516 33.5 124 33.5C128.484 33.5 132.125 29.8587 132.125 25.375C132.125 20.8913 128.484 17.25 124 17.25ZM124 19.75C127.105 19.75 129.625 22.27 129.625 25.375C129.625 28.48 127.105 31 124 31C120.895 31 118.375 28.48 118.375 25.375C118.375 22.27 120.895 19.75 124 19.75Z" fill="white"/>
</g>
<rect x="176" width="72" height="72" rx="36" fill="#FCC43E"/>
<path d="M228.237 37.8435C225.996 37.0315 223.51 37.212 221.408 38.3374L217.981 39.8788C217.704 38.3007 216.492 37.1148 214.996 37.0692C214.987 37.069 209.859 37.0111 209.859 37.0111C205.754 35.885 203.086 37.332 201.565 38.7579C201.253 39.0496 200.98 39.3498 200.739 39.646C200.328 39.2038 199.603 39.0856 199.075 39.3762L194.419 41.9354C193.815 42.2674 193.553 42.9956 193.806 43.6358L198.356 55.1377C198.655 55.8934 199.574 56.2274 200.291 55.8333L204.946 53.2742C205.383 53.0343 205.64 52.5873 205.654 52.1162H212.602C213.736 52.1162 214.855 51.8185 215.838 51.2553C215.838 51.2553 228.907 43.7589 228.98 43.6919C230.81 42.027 230.867 38.7966 228.237 37.8435C229.286 38.2237 225.996 37.0315 228.237 37.8435ZM200.332 52.688L196.797 43.7508L199.033 42.5216L202.568 51.4588L200.332 52.688ZM227.232 41.5773L214.475 48.8826C213.905 49.2087 213.258 49.381 212.602 49.381H204.692L202.036 42.667C202.264 42.2034 202.712 41.4342 203.439 40.7522C204.93 39.3555 206.895 38.998 209.279 39.6898C209.398 39.7244 209.522 39.7427 209.646 39.7441L214.918 39.8034C215.053 39.815 215.301 40.1143 215.301 40.5679C215.301 41.035 215.044 41.3327 214.91 41.3327H209.73V44.0679H214.91C215.552 44.0679 216.149 43.8509 216.646 43.4791L222.578 40.8109C222.609 40.7968 222.64 40.7815 222.67 40.765C224.093 39.9914 225.781 39.8636 227.302 40.4145C227.903 40.6327 227.469 41.3364 227.232 41.5773ZM219 35.7079C213.567 35.7079 209.147 31.2874 209.147 25.8539C209.147 20.4205 213.567 16 219 16C224.433 16 228.853 20.4205 228.853 25.8539C228.853 31.2874 224.433 35.7079 219 35.7079ZM219 18.7352C215.077 18.7352 211.886 21.9286 211.886 25.8539C211.886 29.7792 215.078 32.9727 219 32.9727C222.923 32.9727 226.114 29.7791 226.114 25.8539C226.114 21.9287 222.922 18.7352 219 18.7352Z" fill="white"/>
<path d="M219.636 24.7391C218.547 24.2918 218.463 24.0996 218.463 23.8767C218.463 23.7344 218.533 23.4036 219.188 23.4036C219.786 23.4036 220.532 23.7396 221.058 24.0858L221.79 22.1679C221.267 21.8353 220.632 21.5496 220.039 21.4582V20.2109H218.088V21.5796C216.929 21.9449 216.215 22.8714 216.215 24.0247C216.215 25.5522 217.437 26.2342 218.63 26.6991C219.584 27.0827 219.664 27.3764 219.664 27.6216C219.664 27.9988 219.316 28.2425 218.778 28.2425C218.077 28.2425 217.261 27.8379 216.69 27.3951L215.986 29.3438C216.569 29.7953 217.243 30.0932 218.001 30.2044V31.4968H219.964V30.09C221.159 29.7094 221.924 28.7192 221.924 27.5353C221.924 25.878 220.702 25.1705 219.636 24.7391Z" fill="white"/>
<defs>
<clipPath id="clip0_38_556">
<rect width="40" height="40" fill="white" transform="translate(16 16)"/>
</clipPath>
<clipPath id="clip1_38_556">
<rect width="40" height="40" fill="white" transform="translate(104 16)"/>
</clipPath>
</defs>
</svg>
