<svg width="40" height="40" viewBox="0 0 40 40" fill="none" xmlns="http://www.w3.org/2000/svg">
<path d="M14.2545 3.50917C11.9688 4.64226 10.0464 6.39315 8.70524 8.56327C7.36408 10.7334 6.65785 13.2359 6.66665 15.787V21.7167C6.6677 22.5871 7.01397 23.4216 7.62948 24.0372C8.245 24.6527 9.07951 24.9989 9.94998 25H13.3333V35C13.3333 35.442 13.5089 35.866 13.8215 36.1785C14.134 36.4911 14.558 36.6667 15 36.6667C15.442 36.6667 15.8659 36.4911 16.1785 36.1785C16.4911 35.866 16.6666 35.442 16.6666 35V5C16.6664 4.71598 16.5936 4.43673 16.4552 4.18872C16.3168 3.9407 16.1173 3.73215 15.8757 3.58283C15.6341 3.43351 15.3584 3.34837 15.0747 3.33548C14.7909 3.32259 14.5086 3.38237 14.2545 3.50917ZM13.3333 21.6833L9.99998 21.7167V15.787C9.99498 14.3525 10.2888 12.9327 10.8627 11.618C11.4366 10.3034 12.278 9.12261 13.3333 8.151V21.6833ZM30 5V11.6667C29.9994 12.1085 29.8236 12.5321 29.5112 12.8445C29.1988 13.157 28.7752 13.3328 28.3333 13.3333V5C28.3333 4.55797 28.1577 4.13405 27.8452 3.82149C27.5326 3.50893 27.1087 3.33333 26.6666 3.33333C26.2246 3.33333 25.8007 3.50893 25.4881 3.82149C25.1756 4.13405 25 4.55797 25 5V13.3333C24.5581 13.3328 24.1345 13.157 23.8221 12.8445C23.5097 12.5321 23.3339 12.1085 23.3333 11.6667V5C23.3333 4.55797 23.1577 4.13405 22.8452 3.82149C22.5326 3.50893 22.1087 3.33333 21.6666 3.33333C21.2246 3.33333 20.8007 3.50893 20.4881 3.82149C20.1756 4.13405 20 4.55797 20 5V11.6667C20.0014 12.9923 20.5287 14.2632 21.4661 15.2006C22.4034 16.138 23.6743 16.6652 25 16.6667V35C25 35.442 25.1756 35.866 25.4881 36.1785C25.8007 36.4911 26.2246 36.6667 26.6666 36.6667C27.1087 36.6667 27.5326 36.4911 27.8452 36.1785C28.1577 35.866 28.3333 35.442 28.3333 35V16.6667C29.6589 16.6652 30.9299 16.138 31.8672 15.2006C32.8046 14.2632 33.3319 12.9923 33.3333 11.6667V5C33.3333 4.55797 33.1577 4.13405 32.8452 3.82149C32.5326 3.50893 32.1087 3.33333 31.6666 3.33333C31.2246 3.33333 30.8007 3.50893 30.4881 3.82149C30.1756 4.13405 30 4.55797 30 5Z" fill="white"/>
</svg>
