<svg width="24" height="24" viewBox="0 0 24 24" fill="none" xmlns="http://www.w3.org/2000/svg">
<path d="M15.7055 6.52503C15.7055 6.73128 15.6914 6.93753 15.6656 7.14144C15.6773 7.05941 15.689 6.97503 15.6984 6.893C15.6422 7.30081 15.5344 7.69691 15.3773 8.07659C15.4078 8.00159 15.4406 7.92659 15.4711 7.85159C15.314 8.22191 15.1125 8.56878 14.8664 8.88753C14.9156 8.82425 14.9648 8.76097 15.014 8.69769C14.7703 9.01175 14.4867 9.29534 14.1726 9.53909C14.2359 9.48987 14.2992 9.44066 14.3625 9.39144C14.0437 9.63519 13.6969 9.83909 13.3265 9.99612C13.4015 9.96566 13.4765 9.93284 13.5515 9.90237C13.1719 10.0594 12.7758 10.1672 12.368 10.2235C12.45 10.2118 12.5344 10.2 12.6164 10.1907C12.2062 10.2446 11.7937 10.2446 11.3836 10.1907C11.4656 10.2024 11.55 10.2141 11.632 10.2235C11.2242 10.1672 10.8281 10.0594 10.4484 9.90237C10.5234 9.93284 10.5984 9.96566 10.6734 9.99612C10.3031 9.83909 9.95623 9.63753 9.63748 9.39144C9.70076 9.44066 9.76404 9.48987 9.82732 9.53909C9.51326 9.29534 9.22967 9.01175 8.98592 8.69769C9.03514 8.76097 9.08436 8.82425 9.13357 8.88753C8.88982 8.56878 8.68592 8.22191 8.52889 7.85159C8.55936 7.92659 8.59217 8.00159 8.62264 8.07659C8.4656 7.69691 8.35779 7.30081 8.30154 6.893C8.31326 6.97503 8.32498 7.05941 8.33436 7.14144C8.28045 6.73128 8.28045 6.31878 8.33436 5.90863C8.32264 5.99066 8.31092 6.07503 8.30154 6.15706C8.35779 5.74925 8.4656 5.35316 8.62264 4.97347C8.59217 5.04847 8.55936 5.12347 8.52889 5.19847C8.68592 4.82816 8.88748 4.48128 9.13357 4.16253C9.08436 4.22581 9.03514 4.28909 8.98592 4.35238C9.22967 4.03831 9.51326 3.75472 9.82732 3.51097C9.76404 3.56019 9.70076 3.60941 9.63748 3.65863C9.95623 3.41488 10.3031 3.21097 10.6734 3.05394C10.5984 3.08441 10.5234 3.11722 10.4484 3.14769C10.8281 2.99066 11.2242 2.88284 11.632 2.82659C11.55 2.83831 11.4656 2.85003 11.3836 2.85941C11.7937 2.8055 12.2062 2.8055 12.6164 2.85941C12.5344 2.84769 12.45 2.83597 12.368 2.82659C12.7758 2.88284 13.1719 2.99066 13.5515 3.14769C13.4765 3.11722 13.4015 3.08441 13.3265 3.05394C13.6969 3.21097 14.0437 3.41253 14.3625 3.65863C14.2992 3.60941 14.2359 3.56019 14.1726 3.51097C14.4867 3.75472 14.7703 4.03831 15.014 4.35238C14.9648 4.28909 14.9156 4.22581 14.8664 4.16253C15.1101 4.48128 15.314 4.82816 15.4711 5.19847C15.4406 5.12347 15.4078 5.04847 15.3773 4.97347C15.5344 5.35316 15.6422 5.74925 15.6984 6.15706C15.6867 6.07503 15.675 5.99066 15.6656 5.90863C15.6914 6.11253 15.7031 6.31878 15.7055 6.52503C15.7078 7.01487 16.1344 7.48597 16.643 7.46253C17.1492 7.43909 17.5828 7.05003 17.5805 6.52503C17.5758 5.40238 17.2383 4.25394 16.5773 3.33988C16.3992 3.09378 16.2094 2.85238 15.9984 2.63441C15.7851 2.41409 15.5508 2.22425 15.307 2.03909C14.864 1.70159 14.3695 1.45316 13.8445 1.26097C11.7281 0.485188 9.17576 1.17659 7.74373 2.92034C7.54685 3.15941 7.35935 3.40784 7.19998 3.67503C7.0406 3.93988 6.91639 4.22113 6.80154 4.50706C6.58592 5.03675 6.47576 5.59925 6.43123 6.16878C6.34451 7.28441 6.63513 8.44925 7.21639 9.4055C7.77654 10.3289 8.62264 11.1211 9.6117 11.5688C9.90233 11.7 10.2 11.8219 10.5094 11.9086C10.8164 11.993 11.1281 12.0399 11.4445 12.0774C12.0211 12.1453 12.6094 12.0985 13.1789 11.9836C15.3422 11.543 17.1539 9.67972 17.489 7.493C17.5383 7.17425 17.5758 6.8555 17.5758 6.53206C17.5781 6.04222 17.1422 5.57113 16.6383 5.59456C16.132 5.61097 15.7055 6.00003 15.7055 6.52503ZM18.8156 21.1805C18.3562 21.1805 17.8969 21.1805 17.4375 21.1805C16.343 21.1805 15.2508 21.1805 14.1562 21.1805C12.839 21.1805 11.5219 21.1805 10.2023 21.1805C9.06561 21.1805 7.92889 21.1805 6.78982 21.1805C6.25779 21.1805 5.72576 21.1852 5.19373 21.1805C5.13513 21.1805 5.07654 21.1758 5.02029 21.1688C5.10232 21.1805 5.1867 21.1922 5.26873 21.2016C5.17498 21.1875 5.08591 21.1617 4.9992 21.1266C5.0742 21.1571 5.1492 21.1899 5.2242 21.2203C5.13045 21.1805 5.04373 21.1289 4.9617 21.0657C5.02498 21.1149 5.08826 21.1641 5.15154 21.2133C5.08123 21.1547 5.0156 21.0914 4.95935 21.0211C5.00857 21.0844 5.05779 21.1477 5.10701 21.211C5.04373 21.1289 4.99451 21.0422 4.95232 20.9485C4.98279 21.0235 5.0156 21.0985 5.04607 21.1735C5.01091 21.0868 4.98748 20.9953 4.97107 20.9039C4.98279 20.986 4.99451 21.0703 5.00388 21.1524C4.96638 20.8688 4.99216 20.5688 4.99216 20.2828C4.99216 19.9477 4.99216 19.6149 4.99216 19.2797C4.99216 19.0289 5.00623 18.7805 5.03904 18.5321C5.02732 18.6141 5.0156 18.6985 5.00623 18.7805C5.07185 18.3 5.19841 17.8289 5.38826 17.3813C5.35779 17.4563 5.32498 17.5313 5.29451 17.6063C5.47732 17.1797 5.7117 16.7789 5.99529 16.411C5.94607 16.4742 5.89685 16.5375 5.84763 16.6008C6.13123 16.2375 6.45701 15.9094 6.82264 15.6258C6.75935 15.675 6.69607 15.7242 6.63279 15.7735C7.00076 15.4899 7.40154 15.2555 7.8281 15.0727C7.7531 15.1032 7.6781 15.136 7.6031 15.1664C8.05076 14.9789 8.51951 14.85 9.00232 14.7844C8.92029 14.7961 8.83592 14.8078 8.75389 14.8172C9.10076 14.7727 9.44529 14.7703 9.79451 14.7703C10.2234 14.7703 10.6523 14.7703 11.0812 14.7703C12.082 14.7703 13.0828 14.7703 14.0836 14.7703C14.4703 14.7703 14.8547 14.768 15.2414 14.8172C15.1594 14.8055 15.075 14.7938 14.993 14.7844C15.4734 14.85 15.9445 14.9766 16.3922 15.1664C16.3172 15.136 16.2422 15.1032 16.1672 15.0727C16.5937 15.2555 16.9945 15.4899 17.3625 15.7735C17.2992 15.7242 17.2359 15.675 17.1726 15.6258C17.5359 15.9094 17.864 16.2352 18.1476 16.6008C18.0984 16.5375 18.0492 16.4742 18 16.411C18.2836 16.7789 18.518 17.1797 18.7008 17.6063C18.6703 17.5313 18.6375 17.4563 18.607 17.3813C18.7945 17.8289 18.9234 18.2977 18.9891 18.7805C18.9773 18.6985 18.9656 18.6141 18.9562 18.5321C19.0008 18.886 19.0031 19.2375 19.0031 19.5938C19.0031 19.9805 19.0031 20.3672 19.0031 20.7539C19.0031 20.8875 19.0078 21.0211 18.9914 21.1524C19.0031 21.0703 19.0148 20.986 19.0242 20.9039C19.0101 20.9977 18.9844 21.0868 18.9492 21.1735C18.9797 21.0985 19.0125 21.0235 19.043 20.9485C19.0031 21.0422 18.9516 21.1289 18.8883 21.211C18.9375 21.1477 18.9867 21.0844 19.0359 21.0211C18.9773 21.0914 18.9141 21.1571 18.8437 21.2133C18.907 21.1641 18.9703 21.1149 19.0336 21.0657C18.9516 21.1289 18.8648 21.1782 18.7711 21.2203C18.8461 21.1899 18.9211 21.1571 18.9961 21.1266C18.9094 21.1617 18.818 21.1852 18.7266 21.2016C18.8086 21.1899 18.893 21.1782 18.975 21.1688C18.9234 21.1758 18.8695 21.1782 18.8156 21.1805C18.5742 21.1828 18.3258 21.2836 18.1523 21.4547C17.9906 21.6164 17.8664 21.8836 17.8781 22.118C17.9016 22.6196 18.2906 23.0625 18.8156 23.0555C19.7273 23.0414 20.5289 22.4461 20.7961 21.5719C20.9016 21.225 20.8781 20.8524 20.8781 20.4961C20.8781 19.6805 20.9039 18.8719 20.7633 18.0633C20.557 16.8797 19.9617 15.7664 19.1461 14.8922C18.3305 14.018 17.2336 13.3758 16.0734 13.0899C15.4078 12.9258 14.7375 12.9 14.0578 12.9C13.3594 12.9 12.6633 12.9 11.9648 12.9C11.2758 12.9 10.589 12.9 9.89998 12.9C9.20389 12.9 8.51248 12.9328 7.83514 13.1133C6.68435 13.418 5.60154 14.0672 4.80232 14.9485C3.99607 15.8367 3.41248 16.9524 3.22263 18.143C3.09607 18.9422 3.12185 19.7438 3.12185 20.55C3.12185 20.9203 3.10076 21.3071 3.23435 21.661C3.40779 22.1157 3.68435 22.4742 4.08982 22.7438C4.40623 22.9524 4.80701 23.0532 5.18201 23.0578C5.36482 23.0602 5.54763 23.0578 5.73045 23.0578C6.1992 23.0578 6.6656 23.0578 7.13435 23.0578C7.79998 23.0578 8.46326 23.0578 9.12889 23.0578C9.90233 23.0578 10.6758 23.0578 11.4492 23.0578C12.2437 23.0578 13.0359 23.0578 13.8305 23.0578C14.557 23.0578 15.2812 23.0578 16.0078 23.0578C16.5773 23.0578 17.1469 23.0578 17.714 23.0578C18.0398 23.0578 18.3656 23.0578 18.6914 23.0578C18.7336 23.0578 18.7758 23.0578 18.818 23.0578C19.3078 23.0578 19.7789 22.6266 19.7555 22.1203C19.732 21.6094 19.343 21.1805 18.8156 21.1805Z" fill="white"/>
</svg>
