<svg width="398" height="338" viewBox="0 0 398 338" fill="none" xmlns="http://www.w3.org/2000/svg">
<path d="M0 87.3829C0 84.0692 2.68629 81.3829 6 81.3829H9.27971C12.5934 81.3829 15.2797 84.0692 15.2797 87.3829V337.946H0V87.3829Z" fill="#FB7D5B"/>
<path d="M18.9178 6.00001C18.9178 2.6863 21.6041 0 24.9178 0H27.4699C30.7836 0 33.4699 2.68629 33.4699 6V337.946H18.9178V6.00001Z" fill="#FCC43E"/>
<path d="M62.3415 148.075C62.3415 144.762 65.0278 142.075 68.3415 142.075H71.5468C74.8605 142.075 77.5468 144.762 77.5468 148.075V337.947H62.3415V148.075Z" fill="#FB7D5B"/>
<path d="M80.9697 191.858C80.9697 188.545 83.656 185.858 86.9697 185.858H90.175C93.4887 185.858 96.175 188.545 96.175 191.858V337.946H80.9697V191.858Z" fill="#FCC43E"/>
<path d="M124.683 237.848C124.683 234.534 127.37 231.848 130.683 231.848H133.889C137.202 231.848 139.889 234.534 139.889 237.848V337.946H124.683V237.848Z" fill="#FB7D5B"/>
<path d="M143.311 217.044C143.311 213.73 145.998 211.044 149.311 211.044H152.517C155.83 211.044 158.517 213.73 158.517 217.044V337.946H143.311V217.044Z" fill="#FCC43E"/>
<path d="M187.785 206.584C187.785 203.271 190.472 200.584 193.785 200.584H196.991C200.304 200.584 202.991 203.271 202.991 206.584V337.946H187.785V206.584Z" fill="#FB7D5B"/>
<path d="M206.413 172.917C206.413 169.604 209.1 166.917 212.413 166.917H215.619C218.932 166.917 221.619 169.604 221.619 172.917V337.946H206.413V172.917Z" fill="#FCC43E"/>
<path d="M250.887 272.572C250.887 269.258 253.573 266.572 256.887 266.572H260.092C263.406 266.572 266.092 269.258 266.092 272.572V337.946H250.887V272.572Z" fill="#FB7D5B"/>
<path d="M269.515 241.598C269.515 238.284 272.202 235.598 275.515 235.598H278.721C282.034 235.598 284.721 238.284 284.721 241.598V337.946H269.515V241.598Z" fill="#FCC43E"/>
<path d="M307.907 59.7956C307.907 56.4819 310.593 53.7956 313.907 53.7956H317.112C320.426 53.7956 323.112 56.4819 323.112 59.7956V337.946H307.907V59.7956Z" fill="#FB7D5B"/>
<path d="M326.535 115.01C326.535 111.696 329.221 109.01 332.535 109.01H335.74C339.054 109.01 341.74 111.696 341.74 115.01V337.946H326.535V115.01Z" fill="#FCC43E"/>
<path d="M364.167 155.497C364.167 152.184 366.853 149.497 370.167 149.497H373.372C376.686 149.497 379.372 152.184 379.372 155.497V337.947H364.167V155.497Z" fill="#FB7D5B"/>
<path d="M382.795 87.383C382.795 84.0693 385.481 81.383 388.795 81.383H392C395.314 81.383 398 84.0693 398 87.383V337.946H382.795V87.383Z" fill="#FCC43E"/>
</svg>
