<svg width="410" height="349" viewBox="0 0 410 349" fill="none" xmlns="http://www.w3.org/2000/svg">
<rect y="347.146" width="410" height="1.36136" rx="0.680678" fill="#C1BBEB"/>
<rect y="277.717" width="410" height="1.36136" rx="0.680678" fill="#C1BBEB"/>
<rect y="208.288" width="410" height="1.36136" rx="0.680678" fill="#C1BBEB"/>
<rect y="138.859" width="410" height="1.36136" rx="0.680678" fill="#C1BBEB"/>
<rect y="69.4294" width="410" height="1.36136" rx="0.680678" fill="#C1BBEB"/>
<rect y="0.000183105" width="410" height="1.36136" rx="0.680678" fill="#C1BBEB"/>
<rect x="409.25" y="347.146" width="347.146" height="0.749543" rx="0.374771" transform="rotate(-90 409.25 347.146)" fill="#C1BBEB"/>
<rect x="327.55" y="347.146" width="347.146" height="0.749543" rx="0.374771" transform="rotate(-90 327.55 347.146)" fill="#C1BBEB"/>
<rect x="245.85" y="347.146" width="347.146" height="0.749543" rx="0.374771" transform="rotate(-90 245.85 347.146)" fill="#C1BBEB"/>
<rect x="163.4" y="347.146" width="347.146" height="0.749543" rx="0.374771" transform="rotate(-90 163.4 347.146)" fill="#C1BBEB"/>
<rect x="81.7002" y="347.146" width="347.146" height="0.749543" rx="0.374771" transform="rotate(-90 81.7002 347.146)" fill="#C1BBEB"/>
<rect y="347.146" width="347.146" height="0.749543" rx="0.374771" transform="rotate(-90 0 347.146)" fill="#C1BBEB"/>
</svg>
