<svg width="42" height="40" viewBox="0 0 42 40" fill="none" xmlns="http://www.w3.org/2000/svg">
<path d="M14.9425 34.2002C13.6552 34.1974 12.3975 33.8294 11.3281 33.1425C10.2586 32.4555 9.4252 31.4804 8.93295 30.3401C8.4407 29.1997 8.31162 27.9452 8.56199 26.7346C8.81235 25.5241 9.43095 24.4117 10.3398 23.5377L21.3967 12.9252C21.7606 12.5763 22.1925 12.2996 22.6679 12.1108C23.1433 11.9221 23.6529 11.8249 24.1674 11.8249C24.682 11.8249 25.1916 11.9221 25.667 12.1108C26.1424 12.2996 26.5743 12.5763 26.9382 12.9252C27.302 13.274 27.5907 13.6881 27.7876 14.1439C27.9845 14.5996 28.0859 15.0881 28.0859 15.5814C28.0859 16.0747 27.9845 16.5632 27.7876 17.019C27.5907 17.4747 27.302 17.8888 26.9382 18.2377L15.8682 28.8377C15.7514 28.9685 15.6075 29.0748 15.4458 29.1498C15.284 29.2248 15.1078 29.267 14.9282 29.2737C14.7487 29.2803 14.5696 29.2513 14.4023 29.1885C14.2349 29.1256 14.083 29.0303 13.9559 28.9085C13.8288 28.7866 13.7294 28.641 13.6639 28.4806C13.5983 28.3202 13.5681 28.1485 13.575 27.9763C13.5819 27.8042 13.6259 27.6353 13.7042 27.4802C13.7824 27.3251 13.8933 27.1872 14.0298 27.0752L25.0867 16.4627C25.3003 16.2235 25.4119 15.9159 25.3992 15.6013C25.3866 15.2867 25.2505 14.9883 25.0183 14.7657C24.7861 14.5431 24.4748 14.4127 24.1466 14.4005C23.8185 14.3884 23.4976 14.4954 23.2482 14.7002L12.1783 25.3002C11.4434 26.0046 11.0306 26.9601 11.0306 27.9564C11.0306 28.9527 11.4434 29.9082 12.1783 30.6127C12.9131 31.3171 13.9098 31.7129 14.949 31.7129C15.9882 31.7129 16.9849 31.3171 17.7198 30.6127L28.7767 20.0002C29.9642 18.8214 30.6213 17.2426 30.6065 15.6039C30.5916 13.9652 29.906 12.3976 28.6972 11.2388C27.4885 10.08 25.8533 9.42268 24.144 9.40844C22.4346 9.3942 20.7878 10.0242 19.5582 11.1627L13.104 17.4127C12.8597 17.6455 12.5293 17.7761 12.1848 17.7761C11.8403 17.7761 11.5099 17.6455 11.2656 17.4127C11.1433 17.2965 11.0463 17.1582 10.9801 17.0059C10.914 16.8536 10.8799 16.6902 10.8799 16.5252C10.8799 16.3601 10.914 16.1968 10.9801 16.0444C11.0463 15.8921 11.1433 15.7539 11.2656 15.6377L17.7198 9.38765C19.4315 7.74663 21.7532 6.82471 24.174 6.82471C26.5948 6.82471 28.9164 7.74663 30.6282 9.38765C32.3399 11.0287 33.3016 13.2544 33.3016 15.5752C33.3016 17.8959 32.3399 20.1216 30.6282 21.7627L19.5582 32.3752C18.9517 32.9552 18.2318 33.4149 17.4398 33.7281C16.6478 34.0412 15.7992 34.2016 14.9425 34.2002Z" fill="#A098AE"/>
</svg>
