<svg width="24" height="24" viewBox="0 0 24 24" fill="none" xmlns="http://www.w3.org/2000/svg">
<path d="M20 3.99999H4C3.20435 3.99999 2.44129 4.31606 1.87868 4.87867C1.31607 5.44128 1 6.20434 1 6.99999V17C1 17.7956 1.31607 18.5587 1.87868 19.1213C2.44129 19.6839 3.20435 20 4 20H20C20.7956 20 21.5587 19.6839 22.1213 19.1213C22.6839 18.5587 23 17.7956 23 17V6.99999C23 6.20434 22.6839 5.44128 22.1213 4.87867C21.5587 4.31606 20.7956 3.99999 20 3.99999ZM21 16.75L16.1 12.35L21 8.91999V16.75ZM3 8.91999L7.9 12.35L3 16.75V8.91999ZM9.58 13.53L11.43 14.82C11.5974 14.9361 11.7963 14.9983 12 14.9983C12.2037 14.9983 12.4026 14.9361 12.57 14.82L14.42 13.53L19.42 18H4.6L9.58 13.53ZM4 5.99999H20C20.1857 6.00148 20.3673 6.05466 20.5245 6.15357C20.6817 6.25248 20.8083 6.39321 20.89 6.55999L12 12.78L3.11 6.55999C3.19171 6.39321 3.31826 6.25248 3.47545 6.15357C3.63265 6.05466 3.81428 6.00148 4 5.99999Z" fill="#A098AE"/>
</svg>
