<svg width="34" height="27" viewBox="0 0 34 27" fill="none" xmlns="http://www.w3.org/2000/svg">
<path d="M20.8167 27H20.4622C19.7476 26.9291 19.0743 26.6322 18.5399 26.1525C18.0056 25.6728 17.6381 25.0353 17.4908 24.3325L12.9661 3.36379L8.30643 14.1689C8.17463 14.4709 7.95734 14.7277 7.68134 14.9077C7.40534 15.0877 7.0827 15.183 6.75319 15.1819H1.6883C1.24053 15.1819 0.811109 15.004 0.494491 14.6874C0.177874 14.3708 0 13.9413 0 13.4936C0 13.0458 0.177874 12.6164 0.494491 12.2998C0.811109 11.9832 1.24053 11.8053 1.6883 11.8053H5.63892L9.87655 2.03003C10.1618 1.37406 10.648 0.825634 11.2651 0.463816C11.8821 0.101998 12.5981 -0.0545132 13.3099 0.0168487C14.0216 0.0882107 14.6923 0.383759 15.2253 0.86088C15.7582 1.338 16.1258 1.97204 16.2752 2.67159L20.7998 23.6234L25.4595 12.852C25.5862 12.5437 25.8013 12.2798 26.0777 12.0935C26.3541 11.9072 26.6795 11.8069 27.0128 11.8053H32.0777C32.5254 11.8053 32.9549 11.9832 33.2715 12.2998C33.5881 12.6164 33.766 13.0458 33.766 13.4936C33.766 13.9413 33.5881 14.3708 33.2715 14.6874C32.9549 15.004 32.5254 15.1819 32.0777 15.1819H28.1271L23.8894 24.9571C23.6307 25.559 23.2024 26.0726 22.6568 26.4354C22.1112 26.7981 21.4719 26.9943 20.8167 27Z" fill="#C1BBEB"/>
</svg>
